<?xml version="1.0" encoding="iso-8859-1"?>
<!-- Uploaded to: SVG Repo, www.svgrepo.com, Generator: SVG Repo Mixer Tools -->
<svg version="1.1" id="Layer_1" xmlns="http://www.w3.org/2000/svg" xmlns:xlink="http://www.w3.org/1999/xlink" 
	 viewBox="0 0 512.004 512.004" xml:space="preserve">
<rect x="231.998" y="32.002" style="fill:#F9B233;" width="47.999" height="24"/>
<path style="fill:#CBBBA0;" d="M491.999,480.002H140c-6.627,0-12-5.373-12-12l0,0c0-6.627,5.373-12,12-12h352
	c6.627,0,12,5.373,12,12l0,0C503.999,474.629,498.626,480.002,491.999,480.002z"/>
<g>
	<rect x="215.998" y="136.003" style="fill:#E30613;" width="79.997" height="32"/>
	<path style="fill:#E30613;" d="M424,400.002l-176.959-6.77c-17.339-0.687-31.042-14.943-31.042-32.295v-56.934L96,240.002v-72
		h332.912c41.469,0,75.087,33.618,75.087,75.087v70.872C503.999,361.48,471.519,400.002,424,400.002z"/>
</g>
<circle style="fill:#CBBBA0;" cx="56" cy="208.006" r="47.999"/>
<path style="fill:#86CBED;" d="M503.999,320.002H320v-152h107.537c42.229,0,76.462,34.233,76.462,76.462L503.999,320.002
	L503.999,320.002z"/>
<g>
	<polygon style="fill:#F9B233;" points="32,112.003 8,112.003 8,176.003 56,160.002 	"/>
	<rect x="95.997" y="168.002" style="fill:#F9B233;" width="224.003" height="47.999"/>
</g>
<g>
	<polygon style="fill:#1D1D1B;" points="280,48.003 232,48.003 232,64.002 248,64.002 248,120.002 264,120.002 264,64.002 
		280,64.002 	"/>
	<rect x="231.998" y="24.002" style="fill:#1D1D1B;" width="48.001" height="15.999"/>
	<rect y="24.002" style="fill:#1D1D1B;" width="224.003" height="15.999"/>
	<rect x="288.001" y="24.002" style="fill:#1D1D1B;" width="224.003" height="15.999"/>
	<path style="fill:#1D1D1B;" d="M56,263.387c-30.539,0-55.384-24.846-55.384-55.384S25.461,152.618,56,152.618
		s55.384,24.846,55.384,55.384S86.539,263.387,56,263.387z M56,167.387c-22.395,0-40.616,18.22-40.616,40.616
		S33.605,248.618,56,248.618s40.616-18.22,40.616-40.616C96.616,185.606,78.395,167.387,56,167.387z"/>
</g>
<g>
	<rect x="279.996" y="232" style="fill:#FFFFFF;" width="15.999" height="15.999"/>
	<rect x="247.997" y="232" style="fill:#FFFFFF;" width="15.999" height="15.999"/>
	<rect x="215.998" y="232" style="fill:#FFFFFF;" width="16.001" height="15.999"/>
</g>
<polygon style="fill:#1D1D1B;" points="64,184.002 48.001,184.002 48.001,200.002 32,200.002 32,216.001 48.001,216.001 
	48.001,232.002 64,232.002 64,216.001 79.999,216.001 79.999,200.002 64,200.002 "/>
<g>
	
		<rect x="380.018" y="211.02" transform="matrix(-0.7071 -0.7071 0.7071 -0.7071 501.1745 663.5749)" style="fill:#FFFFFF;" width="16" height="33.941"/>
	
		<rect x="428.016" y="259.018" transform="matrix(-0.7071 -0.7071 0.7071 -0.7071 549.1736 779.4517)" style="fill:#FFFFFF;" width="16" height="33.941"/>
	
		<rect x="404.02" y="201.084" transform="matrix(-0.7071 -0.7071 0.7071 -0.7071 525.1746 721.5225)" style="fill:#FFFFFF;" width="15.999" height="101.82"/>
</g>
<g>
	<rect x="311.995" y="344.007" style="fill:#1D1D1B;" width="31.999" height="15.999"/>
	<path style="fill:#1D1D1B;" d="M428.709,403.293c45.927,0,83.291-37.363,83.291-83.291v-76.709
		c0-45.927-37.364-83.291-83.291-83.291H303.999v-32h-95.999v32H84.81c-8.422-5.074-18.28-8-28.809-8
		c-0.743,0-1.479,0.027-2.215,0.056l-16.019-48.057H0v104c0,30.878,25.121,56,55.999,56c13.666,0,26.199-4.927,35.932-13.09
		l116.069,58.034v51.447c0,9.28,2.972,17.875,8.001,24.902v30.707h-40.001v15.999H216v16.001h-76c-11.027,0-20,8.971-20,20
		c0,11.027,8.971,20,20,20h352c11.027,0,20-8.971,20-20c0-11.028-8.972-20-20-20h-76v-16.001h40v-15.999h-40v-12.709
		L428.709,403.293L428.709,403.293z M328,176.002h100.709c37.105,0,67.292,30.187,67.292,67.292v68.709H328V176.002z
		 M223.999,144.003h64v16.001h-64V144.003z M16.001,120.002h10.234l11.672,35.017c-8.368,2.866-15.847,7.653-21.907,13.845
		C16.001,168.865,16.001,120.002,16.001,120.002z M56,248.002c-22.056,0-40-17.944-40-40.001c0-22.056,17.944-40,40-40
		s40.001,17.944,40.001,40C96,230.059,78.056,248.002,56,248.002z M312,176.002v24H111.419c-1.269-8.831-4.607-16.996-9.503-24H312z
		 M492,464.002c2.205,0,4,1.795,4,4c0,2.205-1.795,4-4,4H140c-2.205,0-4-1.794-4-4c0-2.206,1.794-4,4-4H492z M399.999,432.002
		v16.001H232v-16.001H399.999z M232,416.002v-17.109c5.706,2.813,12.12,4.4,18.9,4.4h149.1v12.709L232,416.002L232,416.002z
		 M250.9,387.293c-14.833,0-26.9-12.068-26.9-26.9v-61.336l-121.08-60.54c4.349-6.664,7.32-14.302,8.501-22.515h200.581v111.999
		h183.508c-0.664,5.571-2.024,10.929-3.967,16.001H456v15.999h26.755c-12.266,16.541-31.915,27.291-54.044,27.291H250.9z"/>
</g>
<rect x="431.996" y="344.007" style="fill:#FFFFFF;" width="15.999" height="15.999"/>
</svg>