<?xml version="1.0" encoding="iso-8859-1"?>
<!-- Uploaded to: SVG Repo, www.svgrepo.com, Generator: SVG Repo Mixer Tools -->
<svg version="1.1" id="Layer_1" xmlns="http://www.w3.org/2000/svg" xmlns:xlink="http://www.w3.org/1999/xlink" 
	 viewBox="0 0 456.5 456.5" xml:space="preserve">
<g>
	<rect x="207.92" y="190.269" style="fill:#666666;" width="43.5" height="20.5"/>
	<path style="fill:#B3B3B3;" d="M222.54,195.329H63.22v-34.58c0-7.79,6.77-13.84,14.5-12.96l25.54,2.89l12.16,1.37l44.84,5.07
		l12.16,1.38l19.15,2.16C209.21,162.649,222.54,177.569,222.54,195.329z"/>
	<path style="fill:#F4581B;" d="M222.54,201.339v1.49H84.42c-9.2,0-18.21,2.14-26.06,6.19c-22.01,11.34-37.96,31.57-43.78,55.49
		L0,260.969c6.85-28.16,25.62-51.95,51.48-65.28c9.97-5.14,21.36-7.86,32.94-7.86L222.54,201.339z"/>
	<rect x="91.943" y="187.828" style="fill:#B3B3B3;" width="130.597" height="20.441"/>
	<polygon style="fill:#999999;" points="115.42,152.049 115.42,206.769 103.26,206.769 103.26,150.679 	"/>
	<polygon style="fill:#999999;" points="172.42,158.499 172.42,208.769 160.26,208.769 160.26,157.119 	"/>
	<path style="fill:#F4581B;" d="M343.245,171.776h16.452v-48.49h-16.452c-13.39,0-24.245,10.855-24.245,24.245l0,0
		C319,160.921,329.855,171.776,343.245,171.776z"/>
	<path style="fill:#F4581B;" d="M307.481,257.176l-14.193-4.854c13.847-40.493,51.876-67.699,94.631-67.699
		c17.091,0,33.972,4.408,48.817,12.748l-7.346,13.078c-12.608-7.082-26.948-10.826-41.472-10.826
		C351.578,199.623,319.253,222.751,307.481,257.176z"/>
	<g id="XMLID_13_">
		<g>
			<path style="fill:#666666;" d="M387.92,216.019c37.87,0,68.58,30.71,68.58,68.58c0,37.88-30.71,68.58-68.58,68.58
				c-37.88,0-68.58-30.7-68.58-68.58C319.34,246.729,350.04,216.019,387.92,216.019z M433.64,284.599
				c0-25.21-20.51-45.72-45.72-45.72s-45.72,20.51-45.72,45.72c0,25.21,20.51,45.72,45.72,45.72S433.64,309.809,433.64,284.599z"/>
		</g>
	</g>
	<path style="fill:#666666;" d="M135.848,308.929c-8.105,12.843-22.423,21.394-38.695,21.394s-30.59-8.552-38.695-21.394H33.022
		c9.809,25.873,34.829,44.254,64.131,44.254s54.322-18.381,64.131-44.254"/>
	<path style="fill:#B3B3B3;" d="M381.301,288.128l-90.526-169.811H256.42c-4.142,0-7.5-3.358-7.5-7.5l0,0c0-4.142,3.358-7.5,7.5-7.5
		h38.855c2.771,0,5.315,1.527,6.618,3.972l92.644,173.783c1.949,3.655,0.565,8.198-3.09,10.146l0,0
		C387.792,293.167,383.249,291.783,381.301,288.128z"/>
	<rect x="117.92" y="232.079" style="fill:#666666;" width="104.62" height="51.91"/>
	<path style="fill:#666666;" d="M307.74,195.329l-3.98,7.5l-24.84,65.44c-2.75,5.92-6.19,11.16-10.08,15.73
		c-14.53,17.06-35.44,24.93-50.9,24.93l-7.95-24.93H84.42v-96.17l138.12,13.51l14.24,1.39l10.64-15.46L307.74,195.329z"/>
	<path style="fill:#B3B3B3;" d="M268.84,283.999c-14.53,17.06-35.44,24.93-50.9,24.93H4.34v-24.93H268.84z"/>
	<path style="fill:#F4581B;" d="M165.72,283.989H28.58c0.33-37.6,30.91-67.96,68.57-67.96
		C134.82,216.029,165.4,246.389,165.72,283.989z"/>
	<g>
		<path style="fill:#CCCCCC;" d="M275.133,229.516l-33.576-7.932c-2.419-0.571-3.916-2.995-3.345-5.414l0,0
			c0.571-2.419,2.995-3.916,5.414-3.345l33.576,7.932c2.419,0.571,3.916,2.995,3.345,5.414l0,0
			C279.975,228.59,277.551,230.087,275.133,229.516z"/>
		<path style="fill:#CCCCCC;" d="M271.684,244.114l-33.576-7.932c-2.419-0.571-3.916-2.995-3.345-5.414l0,0
			c0.571-2.419,2.995-3.916,5.414-3.345l33.576,7.932c2.419,0.571,3.916,2.995,3.345,5.414l0,0
			C276.527,243.188,274.103,244.685,271.684,244.114z"/>
		<path style="fill:#CCCCCC;" d="M268.236,258.712l-33.576-7.932c-2.419-0.571-3.916-2.995-3.345-5.414l0,0
			c0.571-2.419,2.995-3.916,5.414-3.345l33.576,7.932c2.419,0.571,3.916,2.995,3.345,5.414l0,0
			C273.078,257.786,270.654,259.284,268.236,258.712z"/>
	</g>
	<path style="fill:#F4581B;" d="M294.8,145.589c-4.92-2.58-10.32-3.88-15.72-3.88c-4.84,0-9.68,1.04-14.18,3.12l-23.36,10.8
		c-12.702,5.878-20.369,18.676-20.023,32.199l0,0c0.2,8.287,6.975,14.901,15.264,14.901h58.602c5.155,0,9.888-2.847,12.304-7.4l0,0
		h0.053l2.98-7.93C316.71,171.439,309.89,153.519,294.8,145.589z"/>
	<circle style="fill:#999999;" cx="193.92" cy="244.269" r="24"/>
	<circle style="fill:#666666;" cx="193.92" cy="244.269" r="14.341"/>
	<path style="fill:#666666;" d="M282.42,118.317h-26c-4.142,0-7.5-3.358-7.5-7.5l0,0c0-4.142,3.358-7.5,7.5-7.5h26V118.317z"/>
</g>
</svg>