<?xml version="1.0" encoding="iso-8859-1"?>
<!-- Uploaded to: SVG Repo, www.svgrepo.com, Generator: SVG Repo Mixer Tools -->
<svg version="1.1" id="Layer_1" xmlns="http://www.w3.org/2000/svg" xmlns:xlink="http://www.w3.org/1999/xlink" 
	 viewBox="0 0 512 512" xml:space="preserve">
<path style="fill:#E6E9ED;" d="M181.327,186.669h-63.999c-5.89,0-10.664-4.766-10.664-10.672v-31.999
	c0-5.875,4.773-10.656,10.664-10.656H160c3.562,0,6.898,1.781,8.875,4.75l21.328,31.999c2.188,3.266,2.391,7.484,0.531,10.953
	C188.882,184.513,185.265,186.669,181.327,186.669z"/>
<path style="fill:#CCD1D9;" d="M318.09,212.356l-20.546-41.125c-1.812-3.609-5.5-5.89-9.546-5.89H138.664H96
	c-5.891,0-10.671,4.781-10.671,10.656c0,5.906,4.781,10.672,10.671,10.672h29.656l-18.781,93.897l20.914,4.188l238.004,5.469
	l15.078-15.094L318.09,212.356z"/>
<path style="fill:#434A54;" d="M479.994,239.997H96c-5.891,0-10.671,4.781-10.671,10.672v31.992c0,5.906,4.781,10.688,10.671,10.688
	s10.664-4.781,10.664-10.688v-21.32H128v21.32c0,5.906,4.773,10.688,10.664,10.688c5.89,0,10.664-4.781,10.664-10.688v-21.32h21.335
	v21.32c0,5.906,4.773,10.688,10.664,10.688s10.671-4.781,10.671-10.688v-21.32h21.328v21.32c0,5.906,4.781,10.688,10.671,10.688
	s10.664-4.781,10.664-10.688v-21.32h21.335v21.32c0,5.906,4.774,10.688,10.665,10.688c5.898,0,10.664-4.781,10.664-10.688v-21.32
	h21.343v21.32c0,5.906,4.766,10.688,10.656,10.688s10.671-4.781,10.671-10.688v-21.32h21.328v21.32
	c0,5.906,4.781,10.688,10.672,10.688s10.672-4.781,10.672-10.688v-21.32h21.328v21.32c0,5.906,4.781,10.688,10.671,10.688
	c5.891,0,10.656-4.781,10.656-10.688v-21.32h21.343v21.32c0,5.906,4.766,10.688,10.656,10.688s10.672-4.781,10.672-10.688v-21.32
	h21.328v21.32c0,5.906,4.781,10.688,10.672,10.688s10.672-4.781,10.672-10.688v-31.992
	C490.666,244.778,485.885,239.997,479.994,239.997z"/>
<path style="fill:#E6E9ED;" d="M511.399,279.129c-1.5-4.25-5.547-7.133-10.078-7.133H53.33c-4.039,0-7.734,2.289-9.539,5.914
	L1.127,363.221c-1.656,3.312-1.477,7.25,0.469,10.375c1.938,3.156,5.375,5.062,9.07,5.062h384c2.422,0,4.766-0.812,6.656-2.312
	l106.67-85.342C511.524,288.16,512.899,283.41,511.399,279.129z"/>
<path style="fill:#434A54;" d="M4.073,357.346l-2.945,5.875c-1.656,3.312-1.477,7.25,0.469,10.375
	c1.938,3.156,5.375,5.062,9.07,5.062h384c2.422,0,4.766-0.812,6.656-2.312l23.749-19H4.073z"/>
<polygon style="fill:#4FC2E9;" points="125.656,186.669 120.516,212.356 318.09,212.356 305.263,186.669 "/>
<g>
	<rect x="170.66" y="186.67" style="fill:#3BAFDA;" width="21.335" height="25.687"/>
	<rect x="213.33" y="186.67" style="fill:#3BAFDA;" width="21.335" height="25.687"/>
</g>
</svg>